<?xml version="1.0" encoding="UTF-8" standalone="no"?>
<!-- Created with Inkscape (http://www.inkscape.org/) -->

<svg
   xmlns:dc="http://purl.org/dc/elements/1.1/"
   xmlns:cc="http://creativecommons.org/ns#"
   xmlns:rdf="http://www.w3.org/1999/02/22-rdf-syntax-ns#"
   xmlns:svg="http://www.w3.org/2000/svg"
   xmlns="http://www.w3.org/2000/svg"
   xmlns:xlink="http://www.w3.org/1999/xlink"
   xmlns:sodipodi="http://sodipodi.sourceforge.net/DTD/sodipodi-0.dtd"
   xmlns:inkscape="http://www.inkscape.org/namespaces/inkscape"
   width="40"
   height="32"
   id="svg3024"
   version="1.1"
   inkscape:version="0.48.2 r9819"
   sodipodi:docname="icon-m-toolbar-search-tags.svg">
  <defs
     id="defs3026"><linearGradient
   id="linearGradient3912">
  <stop
     style="stop-color:#000000;stop-opacity:1;"
     offset="0"
     id="stop3914" />
  <stop
     style="stop-color:#282828;stop-opacity:0.50196081;"
     offset="1"
     id="stop3916" />
</linearGradient>
<linearGradient
   id="linearGradient3841">
  <stop
     style="stop-color:#282828;stop-opacity:1;"
     offset="0"
     id="stop3843" />
  <stop
     style="stop-color:#282828;stop-opacity:0.50196081;"
     offset="1"
     id="stop3845" />
</linearGradient>

	
	
	
	
	
<linearGradient
   inkscape:collect="always"
   xlink:href="#linearGradient3912"
   id="linearGradient3918"
   x1="0"
   y1="16"
   x2="32"
   y2="16"
   gradientUnits="userSpaceOnUse" />

	
	
<linearGradient
   inkscape:collect="always"
   xlink:href="#linearGradient3912"
   id="linearGradient3925"
   gradientUnits="userSpaceOnUse"
   x1="12.568698"
   y1="1.5197133"
   x2="13.075269"
   y2="36.645161"
   gradientTransform="translate(6.317802,1019.4446)" />
<linearGradient
   inkscape:collect="always"
   xlink:href="#linearGradient3912"
   id="linearGradient3957"
   x1="3.5842295"
   y1="1021.2273"
   x2="3.7275987"
   y2="1051.4304"
   gradientUnits="userSpaceOnUse" />
</defs>
  <sodipodi:namedview
     id="base"
     pagecolor="#ffffff"
     bordercolor="#666666"
     borderopacity="1.0"
     inkscape:pageopacity="0.0"
     inkscape:pageshadow="2"
     inkscape:zoom="20.925"
     inkscape:cx="18.088258"
     inkscape:cy="16.176822"
     inkscape:document-units="px"
     inkscape:current-layer="layer1"
     showgrid="false"
     inkscape:window-width="1480"
     inkscape:window-height="984"
     inkscape:window-x="373"
     inkscape:window-y="43"
     inkscape:window-maximized="0" />
  <metadata
     id="metadata3029">
    <rdf:RDF>
      <cc:Work
         rdf:about="">
        <dc:format>image/svg+xml</dc:format>
        <dc:type
           rdf:resource="http://purl.org/dc/dcmitype/StillImage" />
        <dc:title></dc:title>
      </cc:Work>
    </rdf:RDF>
  </metadata>
  <g
     inkscape:label="Layer 1"
     inkscape:groupmode="layer"
     id="layer1"
     transform="translate(0,-1020.3622)">
    <path
       inkscape:connector-curvature="0"
       style="fill:url(#linearGradient3925);fill-opacity:1"
       d="m 26.100802,1024.1216 c -4.063,-4.062 -10.674,-4.062 -14.736,0 -4.063,4.062 -4.063,10.675 0,14.735 3.729,3.731 9.604,4.033 13.686,0.916 l 2.189,2.189 0.447,2.514 c 0.047,0.256 0.233,0.612 0.417,0.796 l 5.532,5.531 c 0.365,0.364 0.965,0.364 1.33,0 l 3.076,-3.077 c 0.367,-0.365 0.367,-0.965 0,-1.329 l -5.527,-5.536 c -0.184,-0.184 -0.541,-0.369 -0.796,-0.416 l -2.517,-0.449 -2.188,-2.186 c 3.12,-4.084 2.816,-9.959 -0.913,-13.688 z m -2.289,12.446 c -2.801,2.801 -7.356,2.801 -10.158,0 -2.8,-2.8 -2.8,-7.355 0,-10.156 2.801,-2.799 7.357,-2.799 10.158,0 2.799,2.801 2.799,7.357 0,10.156 z"
       id="path3901" />
    <rect
       style="fill:url(#linearGradient3957);fill-opacity:1"
       id="rect3949"
       width="3.0107527"
       height="30.250896"
       x="2.3416965"
       y="1021.2033" />
  </g>
</svg>
