<?xml version="1.0" encoding="UTF-8" standalone="no"?>
<!-- Created with Inkscape (http://www.inkscape.org/) -->

<svg
   xmlns:dc="http://purl.org/dc/elements/1.1/"
   xmlns:cc="http://creativecommons.org/ns#"
   xmlns:rdf="http://www.w3.org/1999/02/22-rdf-syntax-ns#"
   xmlns:svg="http://www.w3.org/2000/svg"
   xmlns="http://www.w3.org/2000/svg"
   xmlns:sodipodi="http://sodipodi.sourceforge.net/DTD/sodipodi-0.dtd"
   xmlns:inkscape="http://www.inkscape.org/namespaces/inkscape"
   width="170"
   height="50"
   id="svg2"
   version="1.1"
   inkscape:version="0.48.2 r9819"
   sodipodi:docname="title-logo.svg">
  <defs
     id="defs4" />
  <sodipodi:namedview
     id="base"
     pagecolor="#ffffff"
     bordercolor="#666666"
     borderopacity="1.0"
     inkscape:pageopacity="0.0"
     inkscape:pageshadow="2"
     inkscape:zoom="5.4411765"
     inkscape:cx="85"
     inkscape:cy="25"
     inkscape:document-units="px"
     inkscape:current-layer="layer1"
     showgrid="false"
     inkscape:window-width="1438"
     inkscape:window-height="948"
     inkscape:window-x="399"
     inkscape:window-y="65"
     inkscape:window-maximized="0"
     fit-margin-top="0"
     fit-margin-left="0"
     fit-margin-right="0"
     fit-margin-bottom="0" />
  <metadata
     id="metadata7">
    <rdf:RDF>
      <cc:Work
         rdf:about="">
        <dc:format>image/svg+xml</dc:format>
        <dc:type
           rdf:resource="http://purl.org/dc/dcmitype/StillImage" />
        <dc:title></dc:title>
      </cc:Work>
    </rdf:RDF>
  </metadata>
  <g
     inkscape:label="Layer 1"
     inkscape:groupmode="layer"
     id="layer1"
     transform="translate(-11.702595,-990.96867)">
    <g
       id="icon-m-toolbar-save_2_"
       transform="translate(555.42857,530.6479)">
	<rect
   id="rect2987"
   height="32"
   width="32"
   style="fill:none"
   x="0"
   y="0" />

	<rect
   id="rect2989"
   height="2.2590001"
   width="11.306"
   style="fill:#ffffff"
   y="16.423"
   x="10.42" />

	<rect
   id="rect2991"
   height="2.2590001"
   width="5.9910002"
   style="fill:#ffffff"
   y="21.35"
   x="10.42" />

	<path
   id="path2993"
   d="m 29.271,1.6 h -5.045 v 6.75 c 0,0.311 -0.254,0.564 -0.564,0.564 H 8.537 C 8.227,8.914 7.973,8.66 7.973,8.35 V 1.6 H 2.729 C 2.108,1.6 1.6,2.11 1.6,2.73 v 26.541 c 0,0.621 0.508,1.129 1.129,1.129 h 26.542 c 0.621,0 1.129,-0.508 1.129,-1.129 V 2.73 C 30.4,2.11 29.893,1.6 29.271,1.6 z m -3.785,24.367 c 0,0.621 -0.508,1.129 -1.129,1.129 H 7.842 c -0.622,0 -1.129,-0.508 -1.129,-1.129 V 14.301 c 0,-0.621 0.508,-1.131 1.129,-1.131 h 16.515 c 0.621,0 1.129,0.51 1.129,1.131 v 11.666 z"
   style="fill:#ffffff"
   inkscape:connector-curvature="0" />

	<path
   id="path2995"
   d="m 16.412,1.6 v 4.217 c 0,0.311 0.254,0.564 0.565,0.564 h 3.643 c 0.311,0 0.564,-0.254 0.564,-0.564 V 1.6 h -4.772 z"
   style="fill:#ffffff"
   inkscape:connector-curvature="0" />

</g>
    <g
       id="icon-m-toolbar-search"
       transform="translate(335.42857,822.07647)">
	<rect
   id="rect3011"
   height="32"
   width="32"
   style="fill:none"
   x="0"
   y="0" />

	<path
   id="path3013"
   d="M 19.783,4.677 C 15.72,0.615 9.109,0.615 5.047,4.677 c -4.063,4.062 -4.063,10.675 0,14.735 3.729,3.731 9.604,4.033 13.686,0.916 l 2.189,2.189 0.447,2.514 c 0.047,0.256 0.233,0.612 0.417,0.796 l 5.532,5.531 c 0.365,0.364 0.965,0.364 1.33,0 l 3.076,-3.077 c 0.367,-0.365 0.367,-0.965 0,-1.329 L 26.197,21.416 C 26.013,21.232 25.656,21.047 25.401,21 l -2.517,-0.449 -2.188,-2.186 c 3.12,-4.084 2.816,-9.959 -0.913,-13.688 z m -2.289,12.446 c -2.801,2.801 -7.356,2.801 -10.158,0 -2.8,-2.8 -2.8,-7.355 0,-10.156 2.801,-2.799 7.357,-2.799 10.158,0 2.799,2.801 2.799,7.357 0,10.156 z"
   style="fill:#ffffff"
   inkscape:connector-curvature="0" />

</g>
    <g
       style="overflow:visible"
       id="g2405"
       transform="matrix(0.32282568,0,0,0.32282568,13.443136,991.0747)">
      <path
         inkscape:connector-curvature="0"
         style="fill:#0063db"
         id="path2407"
         d="m 20.591,73.837 -20.591,0 0,-25.351 21.173,0 0,-6.436 C 21.173,10.865 35.353,0 63.324,0 70.9,0 76.727,1.207 81.194,2.013 L 79.058,26.96 c -2.913,-1.006 -5.827,-1.61 -11.071,-1.61 -8.935,0 -12.432,6.438 -12.432,16.7 l 0,6.437 24.863,0 0,25.351 -24.863,0 0,79.467 -34.964,0 0,-79.468 z" />
      <rect
         style="fill:#0063db"
         id="rect2409"
         y="2.415"
         x="98.675003"
         height="150.88901"
         width="34.964001" />
      <rect
         style="fill:#0063db"
         id="rect2411"
         y="4.829"
         x="163.552"
         height="26.556999"
         width="34.965" />
      <rect
         style="fill:#0063db"
         id="rect2413"
         y="48.486"
         x="163.552"
         height="104.817"
         width="34.965" />
      <path
         inkscape:connector-curvature="0"
         style="fill:#0063db"
         id="path2415"
         d="m 303.604,78.462 c -6.41,-4.021 -12.82,-5.833 -21.173,-5.833 -15.151,0 -26.806,10.864 -26.806,28.972 0,16.699 13.598,27.561 28.749,27.561 7.965,0 15.93,-1.809 21.756,-5.029 l 0.777,26.959 c -8.742,3.02 -19.23,4.629 -28.554,4.629 -33.412,0 -58.857,-20.119 -58.857,-54.723 0,-34.806 25.445,-54.924 58.857,-54.924 10.49,0 19.812,1.811 27.777,5.834 l -2.526,26.554 z" />
      <polygon
         style="fill:#0063db"
         id="polygon2417"
         points="321.477,2.415 321.477,2.415 356.44,2.415 356.44,92.548 356.829,92.548 385.965,48.486 424.231,48.486 389.073,96.569 427.145,153.304 384.799,153.304 356.829,101.399 356.44,101.399 356.44,153.304 321.477,153.304 " />
      <path
         inkscape:connector-curvature="0"
         style="fill:#ff0084"
         id="path2419"
         d="m 512.417,77.456 c -3.885,-1.205 -7.771,-1.205 -11.848,-1.205 -16.316,0 -25.447,12.271 -25.447,32.793 l 0,44.26 -34.963,0 0,-104.818 31.855,0 0,19.314 0.389,0 c 6.02,-13.279 14.762,-21.728 29.914,-21.728 4.076,0 8.35,0.603 11.85,1.206 l -1.75,30.178 z" />
    </g>
  </g>
</svg>
